<?xml version="1.0" encoding="utf-8"?>

<!-- Uploaded to: SVG Repo, www.svgrepo.com, Generator: SVG Repo Mixer Tools -->
<svg version="1.1" id="Icons" xmlns="http://www.w3.org/2000/svg" xmlns:xlink="http://www.w3.org/1999/xlink" 
	 viewBox="0 0 32 32" xml:space="preserve">
<style type="text/css">
	.st0{fill:none;stroke:#000000;stroke-width:2;stroke-linecap:round;stroke-linejoin:round;stroke-miterlimit:10;}
	.st1{fill:none;stroke:#000000;stroke-width:2;stroke-linejoin:round;stroke-miterlimit:10;}
</style>
<path class="st0" d="M30.2,19.9c-1.1-1.2-2.9-1.2-4,0l-1.7,1.7l-1.7-1.7c-1.1-1.2-2.9-1.2-4,0c-1.1,1.2-1.1,3,0,4.2l1.7,1.7l4,4.2
	l4-4.2l1.7-1.7C31.3,22.9,31.3,21,30.2,19.9z"/>
<path class="st0" d="M24,13H4l2-4.6C6.6,7,8,6,9.6,6h8.7c1.6,0,3,1,3.7,2.4L24,13z"/>
<path class="st0" d="M8,23H2v2c0,1.1,0.9,2,2,2h2c1.1,0,2-0.9,2-2V23z"/>
<line class="st0" x1="1" y1="12" x2="4.4" y2="12"/>
<line class="st0" x1="24" y1="12" x2="27" y2="12"/>
<line class="st0" x1="4" y1="18" x2="7" y2="18"/>
<path class="st0" d="M18,23H3c-1.1,0-2-0.9-2-2v-4c0-2.2,1.8-4,4-4h18c2.2,0,4,1.8,4,4v2.3"/>
<path class="st0" d="M9,23l1.4-2.9c0.3-0.7,1-1.1,1.8-1.1h3.5c0.8,0,1.5,0.4,1.8,1.1l0.6,1.1"/>
</svg>